<svg preserveAspectRatio="none" overflow="visible" style="display: block;" width="117" height="19" viewBox="0 0 117 19" fill="none" xmlns="http://www.w3.org/2000/svg">
<g id="changan-horizontal-logo 2" clip-path="url(#clip0_0_188)">
<path id="Vector" d="M10.4014 0C1.79023 0 -0.467874 3.28304 0.0820264 9.73888C0.631926 16.207 2.87833 19 10.4131 19C17.9479 19 20.1826 16.1947 20.7442 9.73888C21.2824 3.28304 19.0243 0 10.4014 0ZM20.2762 9.68988C19.9837 13.0342 19.2466 15.1167 17.8777 16.4275C16.4035 17.8485 14.0284 18.51 10.4131 18.51C6.79783 18.51 4.42273 17.8485 2.94853 16.4275C1.57963 15.1167 0.842526 13.0342 0.550026 9.68988C0.269226 6.54159 0.725526 4.41006 1.95403 2.98904C3.41653 1.31077 6.08413 0.490006 10.4014 0.490006C14.7187 0.490006 17.398 1.31077 18.8488 2.98904C20.089 4.41006 20.5336 6.54159 20.2762 9.68988ZM10.4131 0.980013C2.66773 0.980013 0.585126 3.89555 1.08823 9.71438C1.59133 15.5087 3.61543 18.02 10.4014 18.02C17.1874 18.02 19.2232 15.5087 19.7146 9.71438C20.2294 3.89555 18.1468 0.980013 10.4131 0.980013ZM9.54733 17.138C6.86803 17.04 5.07793 16.4765 3.94303 15.3985C2.79643 14.2959 2.16463 12.5197 1.91893 9.64088C1.68493 6.94584 2.05933 5.14507 3.07723 3.96905C3.63883 3.33204 4.42273 2.84204 5.46403 2.49903C5.51083 2.48678 5.56933 2.52353 5.56933 2.58478V7.8891C5.56933 8.77112 5.77993 9.64088 6.18943 10.4126L9.61753 17.0032C9.65263 17.0645 9.60583 17.138 9.54733 17.138ZM10.2259 11.1109C9.67603 9.93488 8.01463 6.25983 6.50533 2.30303C6.48193 2.25403 6.51703 2.19278 6.56383 2.18053C7.64023 1.94778 8.91553 1.83752 10.4131 1.83752C11.9107 1.83752 13.186 1.94778 14.2624 2.18053C14.3092 2.19278 14.3443 2.25403 14.3209 2.30303C12.8116 6.24758 11.1385 9.92263 10.6003 11.1109C10.5184 11.2824 10.2961 11.2824 10.2259 11.1109ZM18.8956 9.62863C18.6499 12.5074 18.0298 14.2837 16.8715 15.3862C15.7366 16.4765 13.9465 17.0277 11.2672 17.1257C11.2087 17.1257 11.1619 17.0522 11.1853 17.0032L14.6251 10.4126C15.0346 9.64088 15.2452 8.77112 15.2452 7.8891V2.57253C15.2452 2.51128 15.3037 2.47453 15.3505 2.48678C16.3801 2.82979 17.1757 3.31979 17.7373 3.9568C18.7552 5.13282 19.1296 6.93359 18.8956 9.62863ZM26.2549 9.42037C26.2549 12.9362 27.9163 14.3449 31.8709 14.3449H36.1882V12.3114H32.2687C29.9872 12.3114 29.2618 11.5397 29.2618 9.42037C29.2618 7.4971 29.9989 6.71309 32.1985 6.71309H36.1882V4.67956H31.9528C28.0918 4.67956 26.2549 6.18633 26.2549 9.42037ZM46.8469 8.26886H41.7106V4.67956H38.8909V14.3449H41.7106V10.3759H46.8469V14.3449H49.6549V4.67956H46.8469V8.26886ZM58.6288 4.67956H55.4932L51.5737 14.3449H54.0424L56.9908 6.94584C57.0844 6.71309 57.2482 6.71309 57.3418 6.95809L60.4306 14.3449H63.5077L59.6818 5.32882C59.4712 4.82656 59.1787 4.67956 58.6288 4.67956ZM74.0611 10.0329C74.0611 10.2411 73.909 10.3146 73.7803 10.1921L68.1292 5.09607C67.7431 4.74081 67.4623 4.67956 66.8656 4.67956H65.3797V14.3449H67.6963V8.91812C67.6963 8.74661 67.8133 8.69761 67.9303 8.80787L73.5697 13.9039C73.9207 14.2347 74.2249 14.3449 74.7163 14.3449H76.0033C76.2373 14.3449 76.3777 14.2102 76.3777 13.9529V4.67956H74.0611V10.0329ZM78.8698 9.38362C78.8698 12.9607 80.5312 14.3449 84.6028 14.3449H89.8444C90.0784 14.3449 90.2188 14.2102 90.2188 13.9529V8.91812C90.2188 8.67311 90.0901 8.52611 89.8444 8.52611H85.4452V10.4739H87.4225C87.5278 10.4739 87.598 10.5474 87.598 10.6576V12.1154C87.598 12.2257 87.5278 12.2992 87.4225 12.2992H84.9421C82.5553 12.2992 81.865 11.9439 81.865 9.38362C81.865 7.05609 82.5787 6.70084 84.8602 6.70084H90.2071V4.65506L84.6847 4.66731C80.7301 4.67956 78.8698 6.12508 78.8698 9.38362ZM99.2512 4.67956H96.1156L92.1961 14.3449H94.6648L97.6132 6.94584C97.7068 6.71309 97.8706 6.71309 97.9642 6.95809L101.053 14.3449H104.13L100.304 5.32882C100.094 4.82656 99.8011 4.67956 99.2512 4.67956ZM114.684 4.67956V10.0451C114.684 10.2534 114.531 10.3269 114.403 10.2044L108.752 5.10832C108.366 4.75306 108.085 4.69181 107.488 4.69181H106.002V14.3572H108.319V8.91812C108.319 8.74661 108.436 8.69761 108.553 8.80787L114.192 13.9039C114.543 14.2347 114.847 14.3449 115.339 14.3449H116.626C116.86 14.3449 117 14.2102 117 13.9529V4.67956H114.684Z" fill="#0B457F"/>
</g>
<defs>
<clipPath id="clip0_0_188">
<rect width="117" height="19" fill="white"/>
</clipPath>
</defs>
</svg>
